<svg xmlns="http://www.w3.org/2000/svg" viewBox="0 0 82.94 60.17"><defs><style>.cls-1{fill:#01a1e3;}</style></defs><title>Ресурс 4</title><g id="Слой_2" data-name="Слой 2"><g id="Layer_3" data-name="Layer 3"><path class="cls-1" d="M74.4,60.17H8.55A8.56,8.56,0,0,1,0,51.62V8.55A8.56,8.56,0,0,1,8.55,0H74.4a8.55,8.55,0,0,1,8.54,8.55V51.62a8.55,8.55,0,0,1-8.54,8.55ZM8.55,7.25a1.3,1.3,0,0,0-1.3,1.3V51.62a1.3,1.3,0,0,0,1.3,1.3H74.4a1.3,1.3,0,0,0,1.29-1.3V8.55a1.3,1.3,0,0,0-1.29-1.3Z"/><path class="cls-1" d="M74.4,58.36H8.55A6.76,6.76,0,0,1,2.27,54a1.81,1.81,0,0,1,.48-2L28.46,29.09a1.8,1.8,0,0,1,2.55.15,1.82,1.82,0,0,1-.14,2.56L6.27,53.72a3.1,3.1,0,0,0,2.28,1H74.4a3.13,3.13,0,0,0,2.27-1L51.79,31.54a1.81,1.81,0,0,1,2.42-2.7L80.19,52a1.8,1.8,0,0,1,.49,2,6.76,6.76,0,0,1-6.28,4.36Z"/><path class="cls-1" d="M41.48,42.07a1.78,1.78,0,0,1-1.21-.46L2.75,8.16a1.81,1.81,0,0,1-.48-2A6.76,6.76,0,0,1,8.55,1.81H74.4a6.76,6.76,0,0,1,6.28,4.36,1.8,1.8,0,0,1-.49,2L42.68,41.61a1.77,1.77,0,0,1-1.2.46ZM6.28,6.45l35.2,31.38L76.67,6.44a3.13,3.13,0,0,0-2.27-1H8.55a3.06,3.06,0,0,0-2.27,1Z"/></g></g></svg>
