<svg xmlns="http://www.w3.org/2000/svg" viewBox="0 0 90.02 90.02"><defs><style>.cls-1{fill:#01a1e3;}</style></defs><title>Ресурс 3</title><g id="Слой_2" data-name="Слой 2"><g id="Layer_3" data-name="Layer 3"><path class="cls-1" d="M45,90A45,45,0,1,1,90,45,45.06,45.06,0,0,1,45,90ZM45,7.58A37.43,37.43,0,1,0,82.44,45,37.47,37.47,0,0,0,45,7.58Z"/><path class="cls-1" d="M45,88.12C30.82,88.12,19.27,68.78,19.27,45S30.82,1.9,45,1.9,70.74,21.24,70.74,45,59.19,88.12,45,88.12ZM45,5.69C32.91,5.69,23.06,23.33,23.06,45s9.85,39.32,22,39.32S67,66.69,67,45,57.1,5.69,45,5.69Z"/><path class="cls-1" d="M45,88.12a1.9,1.9,0,0,1-1.9-1.89V3.79A1.89,1.89,0,0,1,45,1.9a43.11,43.11,0,0,1,0,86.22ZM46.9,5.73V84.29a39.33,39.33,0,0,0,0-78.56Z"/><path class="cls-1" d="M83.54,61.43H6.47A1.9,1.9,0,0,1,4.69,60.2a42.7,42.7,0,0,1,0-30.39,1.9,1.9,0,0,1,1.78-1.23H83.54a1.91,1.91,0,0,1,1.78,1.23,42.66,42.66,0,0,1,0,30.4,1.92,1.92,0,0,1-1.78,1.22ZM7.8,57.64H82.21a38.71,38.71,0,0,0,0-25.27H7.81a38.8,38.8,0,0,0,0,25.27Z"/></g></g></svg>
